<?xml version="1.0" encoding="UTF-8"?>
<svg id="Capa_1" xmlns="http://www.w3.org/2000/svg" version="1.1" viewBox="0 0 92.06 92.06">
  <!-- Generator: Adobe Illustrator 30.0.0, SVG Export Plug-In . SVG Version: 2.1.1 Build 123)  -->
  <defs>
    <style>
      .st0 {
        fill: #fc3e00;
      }
    </style>
  </defs>
  <path class="st0" d="M46.03,3.16c7.62,21.11-12.23,24.38-12.21,45.48-1.94-4.61-4.88-8.93-4.88-21.49-23.71,14.8-27.94,48.07-.3,61.76-7.6-15.66,5.74-17.99,6.71-29.09,1.02,4.02,8.41,12.23,10.68,17.21-1.37-10.83-2.02-24.13,6.02-33.25,1.84,12.4,7.31,11.35,7.31,27.52,0,12.74-5.98,19.93-5.98,19.93,0,0,29.67-17.94,29.67-45.35S46.03,3.16,46.03,3.16Z"/>
</svg>