<?xml version="1.0" encoding="UTF-8"?>
<svg id="Capa_1" xmlns="http://www.w3.org/2000/svg" version="1.1" viewBox="0 0 92.06 92.06">
  <!-- Generator: Adobe Illustrator 30.0.0, SVG Export Plug-In . SVG Version: 2.1.1 Build 123)  -->
  <defs>
    <style>
      .st0 {
        fill: #e53015;
      }

      .st1 {
        fill: #fcc154;
      }
    </style>
  </defs>
  <circle class="st1" cx="46.03" cy="46.03" r="45"/>
  <path class="st0" d="M51.86,6.55c0,17.37-18.06,23.55-18.04,41.9-1.94-4.01-4.88-7.77-4.88-18.69-14.97,13.65-20.12,43.83,7.52,55.74-7.6-13.62-2.08-17.67-1.11-27.32,1.02,3.5,2.6,7.36,4.87,11.69,0-9.35,8.75-10.71,12.89-18.95,3.03,6.75,6.25,8.49,6.25,17.25,0,11.08-5.98,17.33-5.98,17.33,0,0,22-7.93,22-31.77S51.86,6.55,51.86,6.55Z"/>
</svg>